<?xml version="1.0" encoding="utf-8"?>
<!-- Generator: Adobe Illustrator 25.0.0, SVG Export Plug-In . SVG Version: 6.00 Build 0)  -->
<svg version="1.1" id="Layer_1" xmlns="http://www.w3.org/2000/svg" xmlns:xlink="http://www.w3.org/1999/xlink" x="0px" y="0px"
	 viewBox="0 0 243.2 79.9" style="enable-background:new 0 0 243.2 79.9;" xml:space="preserve">
<style type="text/css">
	.st0{fill:#FFFFFF;}
	.st1{fill:#10069F;}
	.st2{fill:#F05A28;}
	.st3{fill:#FF671F;}
	.st4{fill:#00A3E0;}
	.st5{fill:#25A9E0;}
</style>
<g>
	<path class="st0" d="M99.3,70.1l-0.6-2.1h-3.1L95,70.1h-1.2l2.7-8.2h1.4l2.6,8.3L99.3,70.1z M95.9,67.1h2.6l-1.3-4.3L95.9,67.1z"/>
	<path class="st0" d="M107.6,70.1h-1.5l-3.4-7c0,0.5,0.1,1.1,0.1,1.5c0,0.5,0,1,0,1.7v3.8h-1.1v-8.3h1.5l3.4,7
		c0-0.2-0.1-0.6-0.1-1.1s-0.1-1-0.1-1.4v-4.5h1.1L107.6,70.1z"/>
	<path class="st0" d="M117.6,70.1l-0.6-2.1h-3.1l-0.6,2.1h-1.2l2.6-8.2h1.4l2.6,8.3L117.6,70.1z M114.1,67.1h2.6l-1.3-4.3
		L114.1,67.1z"/>
	<path class="st0" d="M124.1,61.9c0.4,0.1,0.7,0.4,1,0.6l-0.6,0.7c-0.4-0.4-1-0.6-1.6-0.6c-0.6,0-1.3,0.3-1.7,0.8
		c-0.8,1.6-0.8,3.5,0,5.1c0.4,0.5,1,0.8,1.7,0.8c0.3,0,0.6-0.1,0.9-0.2c0.3-0.1,0.6-0.3,0.8-0.5l0.6,0.7c-0.3,0.3-0.6,0.5-1,0.7
		c-0.4,0.2-0.9,0.3-1.4,0.3c-0.6,0-1.3-0.2-1.8-0.5c-0.5-0.4-1-0.9-1.2-1.5c-0.3-0.7-0.5-1.5-0.4-2.3c0-0.8,0.1-1.6,0.5-2.3
		c0.3-0.6,0.7-1.1,1.2-1.4c0.5-0.3,1.1-0.5,1.7-0.5C123.2,61.7,123.7,61.7,124.1,61.9z"/>
	<path class="st0" d="M127.8,61.9v8.3h-1.1v-8.3H127.8z"/>
	<path class="st0" d="M134.5,61.9v7.3h3.4l-0.1,1h-4.4v-8.3H134.5z"/>
	<path class="st0" d="M143.8,61.9l-0.1,0.9h-3.2v2.7h2.8v0.9h-2.8v2.8h3.4v0.9h-4.6v-8.3H143.8z"/>
	<path class="st0" d="M150.2,70.1l-0.6-2.1h-3.1l-0.6,2.1h-1.1l2.7-8.2h1.4l2.6,8.3L150.2,70.1z M146.7,67.1h2.6l-1.3-4.3
		L146.7,67.1z"/>
	<path class="st0" d="M155.1,66.6h-1.3v3.5h-1.1v-8.2h2.2c0.8-0.1,1.6,0.1,2.3,0.6c0.5,0.4,0.8,1.1,0.8,1.8c0,0.5-0.1,1-0.4,1.4
		c-0.4,0.4-0.8,0.7-1.4,0.8l2.2,3.7h-1.4L155.1,66.6z M154.9,65.8c0.5,0,1-0.1,1.4-0.4c0.3-0.3,0.5-0.7,0.5-1.2
		c0-0.4-0.1-0.8-0.5-1.1c-0.4-0.3-1-0.4-1.5-0.3h-1v3H154.9z"/>
	<path class="st0" d="M165.7,70.1h-1.5l-3.4-7c0,0.6,0.1,1.1,0.1,1.5s0,1,0,1.7v3.8h-1.1v-8.3h1.5l3.4,7c0-0.2-0.1-0.6-0.1-1.1
		s-0.1-1-0.1-1.4v-4.5h1.1L165.7,70.1z"/>
	<path class="st0" d="M169,61.9v8.3h-1.1v-8.3H169z"/>
	<path class="st0" d="M177,70.1h-1.5l-3.4-7c0,0.5,0.1,1.1,0.1,1.5c0,0.5,0,1,0,1.7v3.8h-1.1v-8.3h1.5l3.4,7c0-0.2-0.1-0.6-0.1-1.1
		s-0.1-1-0.1-1.4v-4.5h1.1V70.1z"/>
	<path class="st0" d="M183.5,61.9c0.4,0.2,0.8,0.4,1.1,0.7l-0.7,0.7c-0.3-0.2-0.5-0.4-0.9-0.5c-0.3-0.1-0.7-0.2-1-0.2
		c-0.4,0-0.8,0.1-1.2,0.3c-0.4,0.3-0.7,0.7-0.9,1.1c-0.2,0.6-0.4,1.3-0.3,1.9c-0.1,0.9,0.1,1.8,0.6,2.5c0.4,0.5,1,0.8,1.7,0.8
		c0.5,0,1.1-0.1,1.6-0.4v-2.5h-1.5l-0.1-0.9h2.7v4c-0.8,0.5-1.8,0.7-2.7,0.7c-1,0-1.9-0.4-2.6-1.1c-0.7-0.9-1-2.1-0.9-3.2
		c0-0.8,0.1-1.6,0.5-2.3c0.3-0.6,0.7-1.1,1.3-1.5c0.5-0.3,1.2-0.5,1.8-0.5C182.6,61.7,183.1,61.8,183.5,61.9z"/>
	<path class="st0" d="M194,61.9c0.4,0.1,0.7,0.4,1,0.6l-0.6,0.7c-0.4-0.4-1-0.6-1.6-0.6c-0.6,0-1.3,0.3-1.7,0.8
		c-0.8,1.6-0.8,3.5,0,5.1c0.4,0.5,1,0.8,1.7,0.8c0.3,0,0.6-0.1,0.9-0.2c0.3-0.1,0.6-0.3,0.8-0.5l0.6,0.7c-0.3,0.3-0.6,0.5-1,0.7
		c-0.4,0.2-0.9,0.3-1.4,0.3c-1.3,0-2.5-0.8-3-2c-0.3-0.7-0.5-1.5-0.4-2.3c0-0.8,0.1-1.6,0.5-2.3c0.3-0.6,0.7-1.1,1.2-1.4
		c0.5-0.3,1.1-0.5,1.7-0.5C193.2,61.7,193.6,61.8,194,61.9z"/>
	<path class="st0" d="M201.1,62.2c0.5,0.4,1,0.9,1.2,1.5c0.3,0.7,0.5,1.5,0.4,2.3c0,0.8-0.1,1.6-0.4,2.3c-0.3,0.6-0.7,1.1-1.2,1.5
		c-1.1,0.7-2.5,0.7-3.7,0c-0.5-0.4-1-0.9-1.2-1.4c-0.3-0.7-0.5-1.5-0.4-2.3c0-0.8,0.1-1.6,0.4-2.3c0.3-0.6,0.7-1.1,1.2-1.5
		c0.5-0.3,1.2-0.5,1.8-0.5C200,61.7,200.6,61.9,201.1,62.2z M197.6,63.5c-0.5,0.8-0.7,1.7-0.6,2.5c-0.1,0.9,0.1,1.8,0.6,2.5
		c0.4,0.5,1,0.8,1.7,0.8c1.5,0,2.3-1.1,2.3-3.3c0-2.2-0.8-3.3-2.3-3.3C198.6,62.6,198,62.9,197.6,63.5z"/>
	<path class="st0" d="M211.7,70.1h-1.1l-0.3-3.7c-0.1-1.5-0.2-2.6-0.2-3.4l-1.8,6.2h-1.1l-1.9-6.2c0,1,0,2.2-0.1,3.5l-0.2,3.7h-1.1
		l0.7-8.3h1.5l1.7,6l1.7-6h1.6L211.7,70.1z"/>
	<path class="st0" d="M218.2,62.5c0.6,0.5,0.9,1.2,0.8,1.9c0.1,0.8-0.3,1.5-0.9,2c-0.7,0.5-1.5,0.7-2.3,0.7h-1.1v3h-1.1v-8.2h2.2
		C216.7,61.8,217.5,62,218.2,62.5z M217.3,65.8c0.4-0.3,0.6-0.9,0.5-1.4c0-0.5-0.1-1-0.5-1.3c-0.4-0.3-1-0.4-1.5-0.4h-1v3.4h1
		C216.4,66.2,216.9,66.1,217.3,65.8z"/>
	<path class="st0" d="M224.3,70.1l-0.6-2.1h-3.1l-0.6,2.1h-1.2l2.6-8.2h1.4l2.6,8.3L224.3,70.1z M220.9,67.1h2.6l-1.3-4.3
		L220.9,67.1z"/>
	<path class="st0" d="M232.6,70.1h-1.5l-3.4-7c0,0.5,0.1,1.1,0.1,1.5c0,0.5,0,1,0,1.7v3.8h-1v-8.3h1.5l3.4,7c0-0.2-0.1-0.6-0.1-1.1
		s-0.1-1-0.1-1.4v-4.5h1.1V70.1z"/>
	<path class="st0" d="M240.3,61.9l-2.7,5.1v3.2h-1.1V67l-2.7-5.1h1.3l2,4.1l2-4.1H240.3z"/>
	<path class="st0" d="M99.8,53.5h-6.1V30h6.1V53.5z"/>
	<path class="st0" d="M117.3,53.5h-6.1V35.2h-5V30h16.2v5.2h-5L117.3,53.5z"/>
	<path class="st0" d="M129.1,30h9.3c5.1,0,8.5,2.3,8.5,7.7s-3,8-8.3,8h-3.4v7.8h-6.1V30z M135.2,40.8h1c2.2,0,4.4,0,4.4-2.9
		s-2-3-4.4-3h-1V40.8z"/>
	<path class="st0" d="M173.8,53.5h-7.6l-5.8-9h-0.1v9h-6.1V30h9.1c4.6,0,8.2,2.2,8.2,7.2c0,3.2-1.8,6-5.1,6.6L173.8,53.5z
		 M160.4,40.5h0.6c2,0,4.2-0.4,4.2-2.9s-2.2-2.9-4.2-2.9h-0.6L160.4,40.5z"/>
	<path class="st0" d="M203.8,41.3c0,7.6-5.4,13-13,13s-13-5.3-13-13c0-7.1,6.2-12.1,13-12.1S203.8,34.2,203.8,41.3z M184.1,41.3
		c-0.2,3.7,2.5,6.8,6.2,7.1c3.7,0.2,6.8-2.5,7.1-6.2c0-0.3,0-0.6,0-0.9c-0.2-3.7-3.4-6.4-7.1-6.2C187,35.3,184.4,38,184.1,41.3z"/>
	<circle class="st0" cx="206.2" cy="51.8" r="1.6"/>
	<polygon class="st0" points="236.9,30 232.6,44.3 228.3,30 224.8,30 222.1,30 208.6,30 208.6,35.2 213.7,35.2 213.7,53.5 
		219.8,53.5 219.8,35.2 223.9,35.2 230.4,53.5 234.8,53.5 243.2,30 	"/>
</g>
<g>
	<g>
		<path class="st1" d="M68.3,74.3c1.1-1.5,1.9-3.9,2.4-10.7c0.3-4.2,0.5-9.6,0.5-15.1c0-5.5-0.2-10.8-0.6-14.8
			c-0.6-6.6-1.4-9.2-3.5-10.6c-1.2-0.9-4.3-3.1-22.5-3.5l-0.1-0.1c-0.7-1.2-1.8-2.2-3.3-2.9l1.2-1.3c-0.3,0-0.6,0.1-0.9,0.2L40.2,14
			l-1.4,1.5c-0.3-0.1-0.6-0.1-0.9-0.2l1.2,1.3c-1.4,0.7-2.6,1.7-3.3,2.9l-0.1,0.1C17.6,20,14.5,22.2,13.3,23
			c-2.1,1.5-2.9,4.1-3.5,10.6c-0.4,4-0.6,9.2-0.6,14.8c0,5.5,0.2,10.9,0.5,15.1c0.6,6.9,1.4,9.2,2.4,10.7c1.8,2.5,5.3,3.9,12,4.8
			c3.5,0.5,10.2,0.7,16.1,0.9c5.9-0.1,12.6-0.4,16.1-0.9C62.9,78.2,66.5,76.8,68.3,74.3z"/>
		<g>
			<path class="st2" d="M40.2,79.9"/>
			<path class="st3" d="M40.2,14l1.4,1.5c0.3-0.1,0.6-0.1,0.9-0.2l9.4-10.1c0.2,0.1,0.4,0.1,0.6,0.1c1.5,0,2.7-1.2,2.7-2.6
				S53.9,0,52.4,0c-1.5,0-2.7,1.2-2.7,2.6c0,0.4,0.1,0.7,0.2,1.1L40.2,14z"/>
			<path class="st3" d="M24.1,79c-6.6-0.9-10.2-2.3-12-4.8c-1.1-1.5-1.9-3.9-2.4-10.7C9.4,59.4,9.2,54,9.2,48.4
				c0-5.5,0.2-10.8,0.6-14.8c0.6-6.6,1.4-9.2,3.5-10.6c1.2-0.9,4.3-3.1,22.5-3.5l0.1-0.1c0.7-1.2,1.8-2.2,3.3-2.9l-1.2-1.3
				c-0.7-0.1-1.5-0.2-2.3-0.2h-0.2c-1.1,0-2.1,0.1-3.2,0.4L21.1,3.7c0.2-0.3,0.2-0.7,0.2-1.1c0-1.5-1.2-2.6-2.7-2.6
				C17.2,0,16,1.2,16,2.6s1.2,2.6,2.7,2.6c0.2,0,0.4,0,0.6-0.1l10.6,11.4c-1.4,0.7-2.6,1.7-3.3,2.9l-0.1,0.1C8.3,20,5.3,22.2,4,23
				C2,24.5,1.1,27.1,0.5,33.7c-0.4,4-0.6,9.2-0.6,14.8c0,5.5,0.2,10.9,0.5,15.1c0.6,6.9,1.4,9.2,2.4,10.7c1.8,2.5,5.3,3.9,12,4.8
				c4.5,0.6,14,0.9,20.6,0.9v0c0,0,0.1,0,0.1,0s0.1,0,0.1,0v0c1.4,0,2.9,0,4.5,0C34.3,79.8,27.6,79.5,24.1,79z"/>
		</g>
		<g>
			<path class="st4" d="M40.2,14l-1.4,1.5c-0.3-0.1-0.6-0.1-0.9-0.2L28.6,5.2c-0.2,0.1-0.4,0.1-0.6,0.1c-1.5,0-2.7-1.2-2.7-2.6
				S26.5,0,28,0c1.5,0,2.7,1.2,2.7,2.6c0,0.4-0.1,0.7-0.2,1.1L40.2,14z"/>
			<path class="st4" d="M79.9,33.7c-0.6-6.6-1.4-9.2-3.5-10.6c-1.2-0.9-4.3-3.1-22.5-3.5l-0.1-0.1c-0.7-1.2-1.8-2.2-3.3-2.9
				L61.1,5.2c0.2,0.1,0.4,0.1,0.6,0.1c1.5,0,2.7-1.2,2.7-2.6S63.2,0,61.7,0C60.2,0,59,1.2,59,2.6c0,0.4,0.1,0.7,0.2,1.1L48.1,15.4
				c-1-0.2-2.1-0.4-3.2-0.4h-0.2c-0.8,0-1.5,0.1-2.3,0.2l-1.2,1.3c1.4,0.7,2.6,1.7,3.3,2.9l0.1,0.1C62.8,20,65.9,22.2,67.1,23
				c2.1,1.5,2.9,4.1,3.5,10.6c0.4,4,0.6,9.2,0.6,14.8c0,5.5-0.2,10.9-0.5,15.1c-0.6,6.9-1.4,9.2-2.4,10.7c-1.8,2.5-5.3,3.9-12,4.8
				c-3.5,0.5-10.2,0.7-16.1,0.9c1.6,0,3.1,0,4.5,0v0c0,0,0.1,0,0.1,0c0,0,0.1,0,0.1,0v0c6.6,0,16.2-0.3,20.6-0.9
				c6.6-0.9,10.2-2.3,12-4.8c1.1-1.5,1.9-3.9,2.4-10.7c0.3-4.2,0.5-9.6,0.5-15.1C80.4,42.9,80.2,37.7,79.9,33.7z"/>
			<path class="st5" d="M40.2,79.9"/>
		</g>
		<g>
			<path class="st0" d="M19.9,32.3h12.6v34.8H19.9V32.3z"/>
			<path class="st0" d="M36,32.3h26.6v11.3l-7-0.3v23.8H42.9V43.3l-7,0.3V32.3z"/>
		</g>
	</g>
</g>
</svg>
